<mxfile host="app.diagrams.net" agent="Mozilla/5.0 (Windows NT 10.0; Win64; x64) AppleWebKit/537.36 (KHTML, like Gecko) Chrome/132.0.0.0 Safari/537.36 OPR/117.0.0.0" version="26.2.13">
  <diagram name="Page-1" id="2YBvvXClWsGukQMizWep">
    <mxGraphModel dx="734" dy="471" grid="0" gridSize="10" guides="1" tooltips="1" connect="1" arrows="1" fold="1" page="0" pageScale="1" pageWidth="850" pageHeight="1100" math="0" shadow="0">
      <root>
        <mxCell id="0" />
        <mxCell id="1" parent="0" />
        <mxCell id="1BGlT708HDDGTEZ969rv-1" value="alt" style="shape=umlFrame;whiteSpace=wrap;html=1;pointerEvents=0;labelBorderColor=none;fillColor=light-dark(#FFFFFF,#FFFFFF);fontColor=light-dark(#000000,#000000);strokeColor=light-dark(#000000,#000000);" vertex="1" parent="1">
          <mxGeometry x="125" y="210" width="518" height="159" as="geometry" />
        </mxCell>
        <mxCell id="1BGlT708HDDGTEZ969rv-2" value="&lt;b&gt;:SystÃ¨me de Gestion&lt;/b&gt;" style="shape=umlLifeline;perimeter=lifelinePerimeter;whiteSpace=wrap;html=1;container=0;dropTarget=0;collapsible=0;recursiveResize=0;outlineConnect=0;portConstraint=eastwest;newEdgeStyle={&quot;edgeStyle&quot;:&quot;elbowEdgeStyle&quot;,&quot;elbow&quot;:&quot;vertical&quot;,&quot;curved&quot;:0,&quot;rounded&quot;:0};fillColor=light-dark(#FFFFFF, #ffffff);strokeColor=light-dark(#000000,#000000);labelBackgroundColor=none;fontColor=light-dark(#000000,#000000);" vertex="1" parent="1">
          <mxGeometry x="336" y="84" width="100" height="284" as="geometry" />
        </mxCell>
        <mxCell id="1BGlT708HDDGTEZ969rv-3" value="" style="html=1;points=[[0,0,0,0,5],[0,1,0,0,-5],[1,0,0,0,5],[1,1,0,0,-5]];perimeter=orthogonalPerimeter;outlineConnect=0;targetShapes=umlLifeline;portConstraint=eastwest;newEdgeStyle={&quot;curved&quot;:0,&quot;rounded&quot;:0};fillColor=light-dark(#FFFFFF,#FFFFFF);strokeColor=light-dark(#000000,#000000);" vertex="1" parent="1BGlT708HDDGTEZ969rv-2">
          <mxGeometry x="45" y="70" width="10" height="34" as="geometry" />
        </mxCell>
        <mxCell id="1BGlT708HDDGTEZ969rv-4" value="" style="html=1;points=[[0,0,0,0,5],[0,1,0,0,-5],[1,0,0,0,5],[1,1,0,0,-5]];perimeter=orthogonalPerimeter;outlineConnect=0;targetShapes=umlLifeline;portConstraint=eastwest;newEdgeStyle={&quot;curved&quot;:0,&quot;rounded&quot;:0};fillColor=light-dark(#FFFFFF,#FFFFFF);strokeColor=light-dark(#000000,#000000);" vertex="1" parent="1BGlT708HDDGTEZ969rv-2">
          <mxGeometry x="45" y="162" width="10" height="26" as="geometry" />
        </mxCell>
        <mxCell id="1BGlT708HDDGTEZ969rv-63" value="" style="html=1;points=[[0,0,0,0,5],[0,1,0,0,-5],[1,0,0,0,5],[1,1,0,0,-5]];perimeter=orthogonalPerimeter;outlineConnect=0;targetShapes=umlLifeline;portConstraint=eastwest;newEdgeStyle={&quot;curved&quot;:0,&quot;rounded&quot;:0};fillColor=light-dark(#FFFFFF,#FFFFFF);strokeColor=light-dark(#000000,#000000);" vertex="1" parent="1BGlT708HDDGTEZ969rv-2">
          <mxGeometry x="45" y="228" width="10" height="26" as="geometry" />
        </mxCell>
        <mxCell id="1BGlT708HDDGTEZ969rv-9" value="" style="shape=umlLifeline;perimeter=lifelinePerimeter;whiteSpace=wrap;html=1;container=1;dropTarget=0;collapsible=0;recursiveResize=0;outlineConnect=0;portConstraint=eastwest;newEdgeStyle={&quot;curved&quot;:0,&quot;rounded&quot;:0};participant=umlActor;fillColor=light-dark(#FFFFFF,#000000);strokeColor=light-dark(#000000,#000000);" vertex="1" parent="1">
          <mxGeometry x="227" y="85" width="20" height="281" as="geometry" />
        </mxCell>
        <mxCell id="1BGlT708HDDGTEZ969rv-10" value="" style="html=1;points=[[0,0,0,0,5],[0,1,0,0,-5],[1,0,0,0,5],[1,1,0,0,-5]];perimeter=orthogonalPerimeter;outlineConnect=0;targetShapes=umlLifeline;portConstraint=eastwest;newEdgeStyle={&quot;curved&quot;:0,&quot;rounded&quot;:0};fillColor=light-dark(#FFFFFF,#FFFFFF);strokeColor=light-dark(#000000,#000000);" vertex="1" parent="1BGlT708HDDGTEZ969rv-9">
          <mxGeometry x="5" y="64" width="10" height="60" as="geometry" />
        </mxCell>
        <mxCell id="1BGlT708HDDGTEZ969rv-11" value="" style="html=1;points=[[0,0,0,0,5],[0,1,0,0,-5],[1,0,0,0,5],[1,1,0,0,-5]];perimeter=orthogonalPerimeter;outlineConnect=0;targetShapes=umlLifeline;portConstraint=eastwest;newEdgeStyle={&quot;curved&quot;:0,&quot;rounded&quot;:0};fillColor=light-dark(#FFFFFF,#FFFFFF);strokeColor=light-dark(#000000,#000000);" vertex="1" parent="1BGlT708HDDGTEZ969rv-9">
          <mxGeometry x="5" y="159" width="10" height="38" as="geometry" />
        </mxCell>
        <mxCell id="1BGlT708HDDGTEZ969rv-65" value="" style="html=1;points=[[0,0,0,0,5],[0,1,0,0,-5],[1,0,0,0,5],[1,1,0,0,-5]];perimeter=orthogonalPerimeter;outlineConnect=0;targetShapes=umlLifeline;portConstraint=eastwest;newEdgeStyle={&quot;curved&quot;:0,&quot;rounded&quot;:0};fillColor=light-dark(#FFFFFF,#FFFFFF);strokeColor=light-dark(#000000,#000000);" vertex="1" parent="1BGlT708HDDGTEZ969rv-9">
          <mxGeometry x="5" y="225" width="10" height="38" as="geometry" />
        </mxCell>
        <mxCell id="1BGlT708HDDGTEZ969rv-16" value="" style="endArrow=block;endFill=1;endSize=12;html=1;rounded=0;strokeColor=light-dark(#000000,#000000);exitX=1;exitY=0;exitDx=0;exitDy=5;exitPerimeter=0;" edge="1" parent="1" source="1BGlT708HDDGTEZ969rv-10">
          <mxGeometry width="160" relative="1" as="geometry">
            <mxPoint x="252" y="156" as="sourcePoint" />
            <mxPoint x="379" y="154" as="targetPoint" />
          </mxGeometry>
        </mxCell>
        <mxCell id="1BGlT708HDDGTEZ969rv-17" value="&lt;b&gt;:Administrateur&lt;/b&gt;" style="shape=umlLifeline;perimeter=lifelinePerimeter;whiteSpace=wrap;html=1;container=1;dropTarget=0;collapsible=0;recursiveResize=0;outlineConnect=0;portConstraint=eastwest;newEdgeStyle={&quot;curved&quot;:0,&quot;rounded&quot;:0};fillColor=light-dark(#FFFFFF,#FFFFFF);fontColor=light-dark(#000000,#000000);strokeColor=light-dark(#000000,#000000);" vertex="1" parent="1">
          <mxGeometry x="481" y="87" width="100" height="283" as="geometry" />
        </mxCell>
        <mxCell id="1BGlT708HDDGTEZ969rv-19" value="&lt;font style=&quot;color: light-dark(rgb(0, 0, 0), rgb(0, 0, 0)); font-size: 9px;&quot;&gt;&lt;b style=&quot;&quot;&gt;S&#39;inscrire&lt;/b&gt;&lt;/font&gt;" style="text;html=1;align=center;verticalAlign=middle;whiteSpace=wrap;rounded=0;" vertex="1" parent="1">
          <mxGeometry x="241" y="135" width="129" height="22" as="geometry" />
        </mxCell>
        <mxCell id="1BGlT708HDDGTEZ969rv-23" value="&lt;font style=&quot;color: light-dark(rgb(0, 0, 0), rgb(0, 0, 0)); font-size: 9px;&quot;&gt;&lt;b style=&quot;&quot;&gt;NotificationActivation&lt;/b&gt;&lt;/font&gt;" style="text;html=1;align=center;verticalAlign=middle;whiteSpace=wrap;rounded=0;" vertex="1" parent="1">
          <mxGeometry x="255.92000000000002" y="230" width="114.72" height="17" as="geometry" />
        </mxCell>
        <mxCell id="1BGlT708HDDGTEZ969rv-24" value="" style="endArrow=open;html=1;rounded=0;strokeColor=light-dark(#000000,#000000);dashed=1;strokeWidth=1;endFill=0;entryX=0;entryY=1;entryDx=0;entryDy=0;" edge="1" parent="1">
          <mxGeometry width="50" height="50" relative="1" as="geometry">
            <mxPoint x="381" y="248" as="sourcePoint" />
            <mxPoint x="240.27999999999997" y="248" as="targetPoint" />
          </mxGeometry>
        </mxCell>
        <mxCell id="1BGlT708HDDGTEZ969rv-42" value="" style="line;strokeWidth=1;fillColor=none;align=left;verticalAlign=middle;spacingTop=-1;spacingLeft=3;spacingRight=3;rotatable=0;labelPosition=right;points=[];portConstraint=eastwest;strokeColor=light-dark(#000000,#000000);dashed=1;" vertex="1" parent="1">
          <mxGeometry x="125" y="286" width="516" height="8" as="geometry" />
        </mxCell>
        <mxCell id="1BGlT708HDDGTEZ969rv-43" value="&lt;font style=&quot;color: light-dark(rgb(0, 0, 0), rgb(0, 0, 0)); font-size: 10px;&quot;&gt;[Else]&amp;nbsp;&lt;/font&gt;" style="text;html=1;align=center;verticalAlign=middle;whiteSpace=wrap;rounded=0;" vertex="1" parent="1">
          <mxGeometry x="124" y="270" width="44" height="19" as="geometry" />
        </mxCell>
        <mxCell id="1BGlT708HDDGTEZ969rv-56" value="" style="endArrow=block;endFill=1;endSize=12;html=1;rounded=0;strokeColor=light-dark(#000000,#000000);" edge="1" parent="1">
          <mxGeometry width="160" relative="1" as="geometry">
            <mxPoint x="392" y="157" as="sourcePoint" />
            <mxPoint x="531" y="157" as="targetPoint" />
          </mxGeometry>
        </mxCell>
        <mxCell id="1BGlT708HDDGTEZ969rv-57" value="&lt;font style=&quot;color: light-dark(rgb(0, 0, 0), rgb(0, 0, 0)); font-size: 9px;&quot;&gt;&lt;b style=&quot;&quot;&gt;NotifierAdmin&lt;/b&gt;&lt;/font&gt;" style="text;html=1;align=center;verticalAlign=middle;whiteSpace=wrap;rounded=0;" vertex="1" parent="1">
          <mxGeometry x="397.18" y="138" width="118" height="22" as="geometry" />
        </mxCell>
        <mxCell id="1BGlT708HDDGTEZ969rv-58" value="" style="endArrow=open;html=1;rounded=0;strokeColor=light-dark(#000000,#000000);dashed=1;strokeWidth=1;endFill=0;" edge="1" parent="1">
          <mxGeometry width="50" height="50" relative="1" as="geometry">
            <mxPoint x="528.05" y="186" as="sourcePoint" />
            <mxPoint x="391.9973684210527" y="186" as="targetPoint" />
          </mxGeometry>
        </mxCell>
        <mxCell id="1BGlT708HDDGTEZ969rv-59" value="&lt;font style=&quot;color: light-dark(rgb(0, 0, 0), rgb(0, 0, 0)); font-size: 9px;&quot;&gt;&lt;b style=&quot;&quot;&gt;DecisionValidation&lt;/b&gt;&lt;/font&gt;" style="text;html=1;align=center;verticalAlign=middle;whiteSpace=wrap;rounded=0;" vertex="1" parent="1">
          <mxGeometry x="406" y="164" width="118" height="22" as="geometry" />
        </mxCell>
        <mxCell id="1BGlT708HDDGTEZ969rv-64" value="" style="endArrow=open;html=1;rounded=0;strokeColor=light-dark(#000000,#000000);dashed=1;strokeWidth=1;endFill=0;entryX=0;entryY=1;entryDx=0;entryDy=0;" edge="1" parent="1">
          <mxGeometry width="50" height="50" relative="1" as="geometry">
            <mxPoint x="381.46" y="312" as="sourcePoint" />
            <mxPoint x="240.73999999999998" y="312" as="targetPoint" />
          </mxGeometry>
        </mxCell>
        <mxCell id="1BGlT708HDDGTEZ969rv-66" value="&lt;font style=&quot;color: light-dark(rgb(0, 0, 0), rgb(0, 0, 0)); font-size: 9px;&quot;&gt;&lt;b style=&quot;&quot;&gt;NotificationActivation&lt;/b&gt;&lt;/font&gt;" style="text;html=1;align=center;verticalAlign=middle;whiteSpace=wrap;rounded=0;" vertex="1" parent="1">
          <mxGeometry x="253.74" y="294" width="114.72" height="17" as="geometry" />
        </mxCell>
        <mxCell id="1BGlT708HDDGTEZ969rv-67" value="&lt;font style=&quot;color: light-dark(rgb(0, 0, 0), rgb(0, 0, 0)); font-size: 9px;&quot;&gt;&lt;b style=&quot;&quot;&gt;[ValidationAcceptÃ©e]&lt;/b&gt;&lt;/font&gt;" style="text;html=1;align=center;verticalAlign=middle;whiteSpace=wrap;rounded=0;" vertex="1" parent="1">
          <mxGeometry x="223" y="208" width="129" height="22" as="geometry" />
        </mxCell>
      </root>
    </mxGraphModel>
  </diagram>
</mxfile>
